HIERARCHY
ROOT Hips
{
 OFFSET 0.000000 0.000000 0.000000
 CHANNELS 6 Xposition Yposition Zposition Yrotation Xrotation Zrotation
 JOINT Chest
 {
  OFFSET 0.000000 10.354800 0.006500
  CHANNELS 3 Yrotation Xrotation Zrotation
  JOINT Chest2
  {
   OFFSET 0.000000 10.435800 -0.013200
   CHANNELS 3 Yrotation Xrotation Zrotation
   JOINT Chest3
   {
    OFFSET 0.000000 10.393700 0.000000
    CHANNELS 3 Yrotation Xrotation Zrotation
    JOINT Chest4
    {
     OFFSET 0.000000 10.383100 0.000000
     CHANNELS 3 Yrotation Xrotation Zrotation
     JOINT Neck
     {
      OFFSET 0.000000 15.694000 0.000000
      CHANNELS 3 Yrotation Xrotation Zrotation
      JOINT Head
      {
       OFFSET 0.000000 9.711000 -0.028000
       CHANNELS 3 Yrotation Xrotation Zrotation
       End Site
       {
        OFFSET 0.000000 18.578700 -0.014800
       }
      }
     }
     JOINT RightCollar
     {
      OFFSET -3.157200 10.367500 0.000000
      CHANNELS 3 Yrotation Xrotation Zrotation
      JOINT RightShoulder
      {
       OFFSET -14.482500 0.000000 0.000000
       CHANNELS 3 Yrotation Xrotation Zrotation
       JOINT RightElbow
       {
        OFFSET 0.000000 -31.707800 0.000000
        CHANNELS 3 Yrotation Xrotation Zrotation
        JOINT RightWrist
        {
         OFFSET 0.000000 -25.659300 0.000000
         CHANNELS 3 Yrotation Xrotation Zrotation
         End Site
         {
          OFFSET 0.000000 -18.994300 0.000000
         }
        }
       }
      }
     }
     JOINT LeftCollar
     {
      OFFSET 3.157200 10.367500 0.000000
      CHANNELS 3 Yrotation Xrotation Zrotation
      JOINT LeftShoulder
      {
       OFFSET 14.482500 0.000000 0.000000
       CHANNELS 3 Yrotation Xrotation Zrotation
       JOINT LeftElbow
       {
        OFFSET 0.000000 -31.707800 0.000000
        CHANNELS 3 Yrotation Xrotation Zrotation
        JOINT LeftWrist
        {
         OFFSET 0.000000 -25.659300 0.000000
         CHANNELS 3 Yrotation Xrotation Zrotation
         End Site
         {
          OFFSET 0.000000 -18.994300 0.000000
         }
        }
       }
      }
     }
    }
   }
  }
 }
 JOINT RightHip
 {
  OFFSET -8.365600 -0.032100 -0.003200
  CHANNELS 3 Yrotation Xrotation Zrotation
  JOINT RightKnee
  {
   OFFSET 0.000000 -43.980000 0.003100
   CHANNELS 3 Yrotation Xrotation Zrotation
   JOINT RightAnkle
   {
    OFFSET 0.000000 -42.882800 0.005200
    CHANNELS 3 Yrotation Xrotation Zrotation
    JOINT RightToe
    {
     OFFSET 0.000000 -4.915500 10.826300
     CHANNELS 3 Yrotation Xrotation Zrotation
     End Site
     {
      OFFSET 0.000000 -1.517500 6.175900
     }
    }
   }
  }
 }
 JOINT LeftHip
 {
  OFFSET 8.365600 -0.032100 -0.003200
  CHANNELS 3 Yrotation Xrotation Zrotation
  JOINT LeftKnee
  {
   OFFSET 0.000000 -43.980000 0.003100
   CHANNELS 3 Yrotation Xrotation Zrotation
   JOINT LeftAnkle
   {
    OFFSET 0.000000 -42.882800 0.005200
    CHANNELS 3 Yrotation Xrotation Zrotation
    JOINT LeftToe
    {
     OFFSET 0.000000 -4.915500 10.826300
     CHANNELS 3 Yrotation Xrotation Zrotation
     End Site
     {
      OFFSET 0.000000 -1.517500 6.175900
     }
    }
   }
  }
 }
}
MOTION
Frames: 15
Frame Time: 0.008333
0.000000 91.618600 0.000000 0.000000 -5.767877 0.000000 0.000000 11.653817 0.000000 0.000000 -5.885947 0.000000 0.000000 -0.000000 0.000000 0.000000 -0.000000 0.000000 0.000000 12.528835 0.000000 0.000000 0.711642 0.000000 0.000000 -0.000000 0.000000 0.000000 0.000000 -90.000000 0.000000 -2.309062 0.000000 0.000000 2.309062 0.000000 0.000000 -0.000000 0.000000 0.000000 -0.000000 90.000000 0.000000 -2.309062 0.000000 0.000000 2.309062 0.000000 0.000000 8.520406 0.000000 0.000000 1.905762 0.000000 -0.000000 -4.658285 0.000000 0.000000 -0.000000 0.000000 0.000000 8.520406 0.000000 0.000000 1.905762 0.000000 -0.000000 -4.658285 0.000000 0.000000 -0.000000 0.000000
-1.137386 126.525095 39.244952 171.459517 -20.434071 -2.644558 0.693109 13.243384 3.860852 0.039196 1.103994 0.319513 0.043319 1.876633 0.535413 0.601253 11.935293 3.485884 -0.145109 18.988902 -3.515428 0.675205 -5.622020 -3.717481 3.379883 6.726116 -3.057209 0.501114 -9.181856 -3.073826 -96.909765 -56.070920 122.315376 -23.185607 -19.906972 -35.376081 -2.463663 8.947355 -0.644451 12.378284 -5.401902 -7.564697 110.843791 -66.756941 -136.088619 24.526146 -4.323355 40.952660 6.484683 -61.117283 -2.532357 -101.674377 78.334449 -94.629790 4.732553 2.458290 -18.127407 -0.008761 0.005009 -0.003978 -19.392174 -61.725175 3.982806 118.166665 84.188141 111.829104 -4.582340 -23.195869 -0.524044 -0.014354 -0.006826 -0.006516
-1.132860 126.523647 39.246638 171.380710 -20.413801 -2.649427 0.710711 13.237946 3.867396 0.086653 1.093501 0.329169 -0.016940 1.892762 0.525495 0.655276 11.925876 3.495798 -0.146396 18.943820 -3.530920 0.709502 -5.678198 -3.740135 3.382551 6.723732 -3.055420 0.503635 -9.176767 -3.060055 -96.818996 -56.063276 122.223202 -23.167623 -19.906715 -35.337594 -2.448897 8.943423 -0.647737 12.401108 -5.376610 -7.564849 110.836578 -66.772566 -136.080952 24.512697 -4.301103 40.992399 6.454103 -61.147759 -2.429876 -101.491315 78.339762 -94.430954 4.703436 2.498812 -18.163370 -0.000731 -0.001726 -0.000332 -19.348644 -61.737075 4.060307 118.050364 84.148620 111.698980 -4.591467 -23.160334 -0.540542 -0.020119 -0.004677 -0.009134
-1.131456 126.522693 39.245436 171.335394 -20.403474 -2.645898 0.693274 13.244692 3.853838 0.087635 1.092486 0.328085 -0.016358 1.894775 0.526662 0.605455 11.944758 3.487941 -0.061369 18.872797 -3.550918 0.745557 -5.741021 -3.764316 3.473318 6.702781 -3.056435 0.502810 -9.172175 -3.049854 -96.782966 -56.065997 122.194596 -23.165608 -19.897943 -35.332504 -2.367794 8.932082 -0.645817 12.444922 -5.359924 -7.575376 110.838145 -66.789842 -136.085614 24.507226 -4.301115 41.001309 6.434429 -61.161175 -2.377892 -101.409131 78.337440 -94.349960 4.792101 2.513129 -18.196864 0.015001 -0.009317 0.006810 -19.296915 -61.744623 4.094778 117.959040 84.123222 111.593142 -4.572030 -23.119947 -0.562635 -0.044209 -0.006146 -0.020070
-1.125724 126.521827 39.244823 171.304110 -20.391894 -2.670160 0.676029 13.250239 3.868451 0.035567 1.104871 0.317581 0.036725 1.884230 0.536162 0.632400 11.937073 3.489952 -0.057766 18.818388 -3.566494 0.778815 -5.810818 -3.789451 3.454836 6.709559 -3.040856 0.528611 -9.176605 -3.054324 -96.750679 -56.064239 122.167103 -23.173679 -19.895534 -35.356200 -2.413368 8.957635 -0.635034 12.525581 -5.328379 -7.593666 110.922435 -66.775185 -136.185084 24.487153 -4.292867 41.032704 6.332158 -61.178359 -2.267174 -101.343554 78.345711 -94.293472 4.929276 2.523232 -18.226822 0.011279 -0.009997 0.005120 -19.213462 -61.748665 4.146950 118.111338 84.150539 111.754059 -4.610482 -23.086059 -0.569527 -0.010880 -0.003053 -0.004940
-1.124587 126.520926 39.242803 171.255139 -20.384045 -2.660350 0.677537 13.258522 3.859766 0.035447 1.105858 0.317605 0.036542 1.885844 0.536229 0.651299 11.928510 3.488381 -0.054008 18.762804 -3.581211 0.807703 -5.885466 -3.814986 3.433997 6.718228 -3.027682 0.552837 -9.184773 -3.054469 -96.721596 -56.065059 122.150816 -23.184477 -19.908057 -35.378070 -2.448802 8.970675 -0.627359 12.589209 -5.290177 -7.601481 111.005714 -66.761890 -136.275231 24.464776 -4.285204 41.064985 6.335432 -61.189927 -2.234065 -101.310486 78.347517 -94.255913 4.877924 2.521849 -18.214291 -0.003332 -0.001194 -0.001513 -19.138819 -61.755157 4.173499 118.164572 84.158088 111.794250 -4.632672 -23.065081 -0.561192 -0.009261 -0.005531 -0.004204
-1.123644 126.520271 39.240016 171.220453 -20.379620 -2.652414 0.689025 13.261666 3.856873 0.004619 1.118343 0.315319 0.045646 1.883084 0.536956 0.653698 11.936945 3.487835 -0.041710 18.690694 -3.601377 0.834677 -5.960169 -3.840735 3.418548 6.714343 -3.022552 0.574836 -9.197048 -3.050343 -96.697268 -56.077193 122.160798 -23.202329 -19.926704 -35.403287 -2.435613 8.954788 -0.630423 12.571703 -5.187474 -7.572177 111.225242 -66.730628 -136.466855 24.454017 -4.288935 41.079947 6.345726 -61.197024 -2.215897 -101.291510 78.348480 -94.226006 4.840267 2.520052 -18.206478 -0.013985 0.005476 -0.006350 -19.073702 -61.758550 4.191433 118.221054 84.167573 111.836466 -4.653336 -23.046449 -0.553924 -0.007643 -0.006724 -0.003470
-1.118727 126.518969 39.240377 171.164265 -20.361744 -2.660708 0.723971 13.249971 3.877799 -0.011206 1.126228 0.315424 0.043645 1.883826 0.536670 0.640772 11.943203 3.483198 -0.021387 18.622715 -3.620267 0.860416 -6.031152 -3.866165 3.366106 6.727035 -3.009516 0.637496 -9.222617 -3.056970 -96.656418 -56.067820 122.141474 -23.208294 -19.930520 -35.400781 -2.410911 8.943415 -0.633400 12.565205 -5.147428 -7.559295 111.321026 -66.737406 -136.524871 24.446845 -4.288402 41.089903 6.333946 -61.219702 -2.164831 -101.260194 78.348792 -94.146019 4.961052 2.530326 -18.288292 0.008770 -0.001340 0.003982 -19.062028 -61.770946 4.267764 118.262212 84.161363 111.858130 -4.622479 -23.012243 -0.606140 -0.012974 -0.001926 -0.005891
-1.118820 126.518407 39.237388 171.151100 -20.356429 -2.653847 0.701776 13.260916 3.867067 -0.013945 1.126424 0.313994 0.041441 1.884126 0.536444 0.626883 11.946787 3.480020 0.012214 18.583382 -3.634066 0.869641 -6.093266 -3.885437 3.391401 6.719258 -3.012630 0.627993 -9.221724 -3.045372 -96.629192 -56.052400 122.122044 -23.203987 -19.918833 -35.382996 -2.416871 8.942541 -0.632298 12.582303 -5.125250 -7.556406 111.388966 -66.749161 -136.545573 24.444008 -4.284314 41.093918 6.259829 -61.229632 -2.140339 -101.280447 78.394310 -94.188617 5.174360 2.540413 -18.333069 0.008256 -0.007699 0.003748 -19.026195 -61.777152 4.269402 118.282469 84.159065 111.859149 -4.619684 -22.995298 -0.619960 -0.017105 -0.000111 -0.007766
-1.116961 126.517472 39.236191 171.130414 -20.342735 -2.657593 0.660552 13.274781 3.859475 0.012887 1.114902 0.315455 0.039350 1.884385 0.536501 0.558621 11.963598 3.476024 0.094383 18.536502 -3.658104 0.884895 -6.098388 -3.891721 3.469221 6.703294 -3.026817 0.642359 -9.226030 -3.046625 -96.616896 -56.030811 122.086611 -23.204070 -19.904338 -35.358912 -2.412757 8.928119 -0.633960 12.651344 -5.110737 -7.570794 111.356421 -66.810316 -136.478909 24.462165 -4.327668 41.071590 6.237738 -61.246900 -2.114807 -101.283655 78.408310 -94.197360 5.319031 2.544415 -18.346142 0.011186 -0.008064 0.005078 -18.980158 -61.786663 4.290315 118.363850 84.174146 111.934302 -4.638817 -22.990041 -0.612070 -0.014970 0.001604 -0.006797
-1.114003 126.516263 39.236256 171.101025 -20.322680 -2.666961 0.649315 13.269982 3.864984 0.019663 1.111762 0.316436 0.046127 1.882246 0.537988 0.534142 11.966136 3.475126 0.111982 18.484111 -3.677606 0.884997 -6.230279 -3.925276 3.477308 6.704135 -3.029144 0.645291 -9.216317 -3.030687 -96.610535 -56.030718 122.091057 -23.225866 -19.926655 -35.351272 -2.430534 8.925328 -0.634906 12.711209 -5.107202 -7.585143 111.342470 -66.822856 -136.458012 24.462630 -4.338207 41.070753 6.208241 -61.272368 -2.071166 -101.284735 78.414946 -94.170250 5.253925 2.545655 -18.355061 0.005827 -0.003493 0.002646 -18.853528 -61.801126 4.263255 118.437563 84.201786 112.044090 -4.672593 -22.989167 -0.586811 -0.006889 0.003388 -0.003128
-1.111505 126.515397 39.235221 171.082013 -20.307244 -2.678091 0.636618 13.266202 3.870219 0.027252 1.108661 0.317870 0.034643 1.884984 0.537222 0.519001 11.965690 3.475887 0.085619 18.395922 -3.700727 0.936195 -6.263094 -3.954342 3.441653 6.724304 -3.020019 0.616733 -9.208301 -3.001061 -96.601196 -56.037509 122.123132 -23.229847 -19.908475 -35.316333 -2.426888 8.923446 -0.638101 12.716240 -5.100856 -7.575762 111.360475 -66.818143 -136.439651 24.459393 -4.318598 41.104697 6.147621 -61.290655 -2.028120 -101.271952 78.452668 -94.120691 5.238540 2.556904 -18.405673 0.013775 -0.008340 0.006254 -18.818874 -61.810859 4.278561 118.428541 84.204633 112.039592 -4.692812 -22.989388 -0.570950 -0.009310 0.005384 -0.004227
-1.109399 126.514378 39.234381 171.061113 -20.289088 -2.687857 0.625219 13.260989 3.874507 0.052948 1.099254 0.321571 -0.003795 1.896156 0.533556 0.540778 11.957250 3.478296 0.074302 18.359816 -3.709857 0.956026 -6.291199 -3.969792 3.446880 6.728229 -3.021481 0.565890 -9.197463 -2.980513 -96.600674 -56.037549 122.129420 -23.234726 -19.891813 -35.291483 -2.445498 8.923111 -0.636791 12.717811 -5.100789 -7.562226 111.308108 -66.822678 -136.366950 24.507594 -4.275518 41.145354 6.041333 -61.315206 -1.956210 -101.280527 78.504918 -94.145850 5.352747 2.567229 -18.447301 0.016561 -0.014020 0.007518 -18.822414 -61.823715 4.313840 118.395698 84.196539 111.998680 -4.653654 -22.994315 -0.578373 -0.008404 0.006119 -0.003816
-1.108416 126.513946 39.231334 171.054078 -20.280386 -2.695013 0.616319 13.259422 3.877915 0.034368 1.104765 0.319075 -0.005848 1.897285 0.535559 0.554157 11.950310 3.478943 0.064725 18.328533 -3.717554 0.984184 -6.284552 -3.980155 3.452302 6.730543 -3.024474 0.528127 -9.190419 -2.966237 -96.597806 -56.042164 122.141701 -23.216069 -19.908574 -35.317249 -2.462473 8.921118 -0.635661 12.710485 -5.111814 -7.547895 111.217381 -66.817897 -136.255774 24.527237 -4.285011 41.160216 6.009318 -61.325258 -1.926485 -101.269227 78.520818 -94.111215 5.211896 2.568165 -18.443434 0.011387 -0.011943 0.005169 -18.765484 -61.830760 4.289412 118.405403 84.205535 112.033332 -4.646832 -23.002143 -0.590316 -0.001777 0.004331 -0.000807
-1.109389 126.513632 39.227063 171.048200 -20.274964 -2.690747 0.603723 13.261762 3.869406 0.015737 1.111502 0.317285 -0.006965 1.897297 0.537196 0.538623 11.948959 3.481821 0.082591 18.296931 -3.733672 1.002068 -6.325784 -4.001694 3.455945 6.733993 -3.035777 0.556248 -9.199317 -2.968715 -96.630608 -56.047678 122.125992 -23.199832 -19.925386 -35.349193 -2.451615 8.915031 -0.644526 12.707306 -5.128447 -7.537395 111.109594 -66.808444 -136.138951 24.543217 -4.294674 41.170396 5.997697 -61.330664 -1.917370 -101.258308 78.533385 -94.076583 4.975999 2.563858 -18.418303 -0.002381 -0.005533 -0.001081 -18.689681 -61.837720 4.240755 118.404570 84.207701 112.042940 -4.645493 -23.007585 -0.576288 -0.001010 0.001593 -0.000459
